<svg xmlns="http://www.w3.org/2000/svg" width="56" height="56" fill="none"><g clip-path="url(#a)"><path fill="#73B06F" d="M0 0h56v28H0V0Z"/><path fill="#0C8F8F" d="M0 28h56v28H0V28Zm51.644 0a23.645 23.645 0 1 0-47.288 0h47.288Z"/><path fill="#405059" d="M51.644 28a23.644 23.644 0 1 1-47.288 0h47.288Zm-3.733 0A19.911 19.911 0 0 0 8.09 28h39.82Z"/><path fill="#FFAD08" d="M47.911 28A19.911 19.911 0 0 1 8.09 28h39.82Zm-3.733 0a16.178 16.178 0 0 0-32.356 0h32.356Z"/><path fill="#73B06F" d="M44.178 28a16.178 16.178 0 0 1-32.356 0h32.356Z"/><path fill="#EDD75A" d="M28 42.311c7.904 0 14.311-6.407 14.311-14.311S35.904 13.689 28 13.689 13.689 20.096 13.689 28 20.096 42.311 28 42.311Z"/></g><defs><clipPath id="a"><rect width="56" height="56" fill="#fff" rx="28"/></clipPath></defs></svg>