<svg xmlns="http://www.w3.org/2000/svg" width="40" height="40" fill="none"><g clip-path="url(#a)"><mask id="b" width="40" height="40" x="0" y="0" maskUnits="userSpaceOnUse" style="mask-type:luminance"><path fill="#fff" d="M40 20C40 8.954 31.046 0 20 0S0 8.954 0 20s8.954 20 20 20 20-8.954 20-20Z"/></mask><g mask="url(#b)"><path fill="#EDD75A" d="M40 0H0v40h40V0Z"/><path fill="#0C8F8F" d="M8.775-11.904C-3.515-6.939-9.452 7.049-4.487 19.339.48 31.629 14.467 37.566 26.756 32.601c12.29-4.965 18.228-18.953 13.262-31.243-4.965-12.29-18.953-18.227-31.243-13.262Z"/><path stroke="#fff" stroke-linecap="round" stroke-width="1.111" d="M16.235 20.615c2.046 1.41 4.247 1.719 6.602.928"/><path fill="#fff" d="M14.412 13.626c.086-.607-.215-1.152-.67-1.216-.456-.064-.895.377-.98.984-.085.608.215 1.153.67 1.217.456.064.895-.377.98-.985Zm13.204 1.856c.085-.608-.215-1.152-.67-1.216-.456-.064-.895.376-.98.984-.086.608.214 1.152.67 1.216.456.064.895-.376.98-.984Z"/></g></g><defs><clipPath id="a"><path fill="#fff" d="M0 0h40v40H0z"/></clipPath></defs></svg>